0
SECTION
2
ENTITIES
0
3DFACE
8
0
10
121.82872
20
0.0
30
-433.0127
11
134.13171
21
28.510574
31
-433.0127
12
125.58802
22
55.91539
32
-433.0127
13
125.58812
23
55.91549
33
-433.0126
0
3DFACE
8
0
10
121.82872
20
0.0
30
-433.0127
11
125.58802
21
55.91539
31
-433.0127
12
106.34258
22
77.26241
32
-433.0127
13
106.34268
23
77.26251
33
-433.0126
0
3DFACE
8
0
10
121.82872
20
0.0
30
-433.0127
11
106.34258
21
77.26241
31
-433.0127
12
120.24084
22
-25.558228
32
-433.0127
13
120.24094
23
-25.558128
33
-433.0126
0
3DFACE
8
0
10
121.82872
20
0.0
30
-433.0127
11
120.24084
21
-25.558228
31
-433.0127
12
122.74416
22
-2.711836E-4
32
-433.0127
13
122.74426
23
-1.7118361E-4
33
-433.0126
0
3DFACE
8
0
10
56.789257
20
-98.36211
30
-433.0127
11
78.49896
21
-87.18216
31
-433.0127
12
81.76077
22
90.80455
32
-433.0127
13
81.76087
23
90.80465
33
-433.0126
0
3DFACE
8
0
10
102.77123
20
-74.66791
30
-433.0127
11
81.76077
21
90.80455
31
-433.0127
12
78.49896
22
-87.18216
32
-433.0127
13
78.49906
23
-87.18206
33
-433.0126
0
3DFACE
8
0
10
81.76077
20
90.80455
30
-433.0127
11
102.77123
21
-74.66791
31
-433.0127
12
106.34258
22
77.26241
32
-433.0127
13
106.34268
23
77.26251
33
-433.0126
0
3DFACE
8
0
10
118.88232
20
-52.93006
30
-433.0127
11
106.34258
21
77.26241
31
-433.0127
12
102.77123
22
-74.66791
32
-433.0127
13
102.77133
23
-74.66781
33
-433.0126
0
3DFACE
8
0
10
106.34258
20
77.26241
30
-433.0127
11
118.88232
21
-52.93006
31
-433.0127
12
120.24084
22
-25.558228
32
-433.0127
13
120.24094
23
-25.558128
33
-433.0126
0
3DFACE
8
0
10
11.027364
20
104.91841
30
-433.0127
11
12.594275
21
-119.8272
31
-433.0127
12
33.31338
22
102.528046
32
-433.0127
13
33.31348
23
102.528145
33
-433.0126
0
3DFACE
8
0
10
34.75267
20
-106.958015
30
-433.0127
11
33.31338
21
102.528046
31
-433.0127
12
12.594275
22
-119.8272
32
-433.0127
13
12.594376
23
-119.8271
33
-433.0126
0
3DFACE
8
0
10
33.31338
20
102.528046
30
-433.0127
11
34.75267
21
-106.958015
31
-433.0127
12
56.272167
22
97.46627
32
-433.0127
13
56.272266
23
97.46637
33
-433.0126
0
3DFACE
8
0
10
56.789257
20
-98.36211
30
-433.0127
11
56.272167
21
97.46627
31
-433.0127
12
34.75267
22
-106.958015
32
-433.0127
13
34.75277
23
-106.95792
33
-433.0126
0
3DFACE
8
0
10
56.272167
20
97.46627
30
-433.0127
11
56.789257
21
-98.36211
31
-433.0127
12
81.76077
22
90.80455
32
-433.0127
13
81.76087
23
90.80465
33
-433.0126
0
3DFACE
8
0
10
-81.37818
20
90.379616
30
-433.0127
11
-68.388336
21
-118.452095
31
-433.0127
12
-65.43253
22
113.33246
32
-433.0127
13
-65.432434
23
113.33256
33
-433.0126
0
3DFACE
8
0
10
-39.311874
20
-120.98947
30
-433.0127
11
-65.43253
21
113.33246
31
-433.0127
12
-68.388336
22
-118.452095
32
-433.0127
13
-68.38824
23
-118.451996
33
-433.0126
0
3DFACE
8
0
10
-65.43253
20
113.33246
30
-433.0127
11
-39.311874
21
-120.98947
31
-433.0127
12
-38.285954
22
117.83203
32
-433.0127
13
-38.285854
23
117.83213
33
-433.0126
0
3DFACE
8
0
10
-13.154751
20
-125.158676
30
-433.0127
11
-38.285954
21
117.83203
31
-433.0127
12
-39.311874
22
-120.98947
32
-433.0127
13
-39.311775
23
-120.98937
33
-433.0126
0
3DFACE
8
0
10
-38.285954
20
117.83203
30
-433.0127
11
-13.154751
21
-125.158676
31
-433.0127
12
-11.011824
22
104.77046
32
-433.0127
13
-11.0117235
23
104.77056
33
-433.0126
0
3DFACE
8
0
10
12.594275
20
-119.8272
30
-433.0127
11
-11.011824
21
104.77046
31
-433.0127
12
-13.154751
22
-125.158676
32
-433.0127
13
-13.154651
23
-125.15858
33
-433.0126
0
3DFACE
8
0
10
-11.011824
20
104.77046
30
-433.0127
11
12.594275
21
-119.8272
31
-433.0127
12
11.027364
22
104.91841
32
-433.0127
13
11.027464
23
104.91851
33
-433.0126
0
3DFACE
8
0
10
-137.96735
20
-61.42703
30
-433.0127
11
-129.49538
21
-94.08392
31
-433.0127
12
-127.77538
22
56.889256
32
-433.0127
13
-127.77528
23
56.889355
33
-433.0126
0
3DFACE
8
0
10
-103.977646
20
-115.4789
30
-433.0127
11
-127.77538
21
56.889256
31
-433.0127
12
-129.49538
22
-94.08392
32
-433.0127
13
-129.49527
23
-94.083824
33
-433.0126
0
3DFACE
8
0
10
-127.77538
20
56.889256
30
-433.0127
11
-103.977646
21
-115.4789
31
-433.0127
12
-103.146225
22
74.94011
32
-433.0127
13
-103.146126
23
74.94021
33
-433.0126
0
3DFACE
8
0
10
-68.388336
20
-118.452095
30
-433.0127
11
-103.146225
21
74.94011
31
-433.0127
12
-103.977646
22
-115.4789
32
-433.0127
13
-103.97755
23
-115.4788
33
-433.0126
0
3DFACE
8
0
10
-103.146225
20
74.94011
30
-433.0127
11
-68.388336
21
-118.452095
31
-433.0127
12
-81.37818
22
90.379616
32
-433.0127
13
-81.37808
23
90.379715
33
-433.0126
0
3DFACE
8
0
10
-139.81903
20
29.719439
30
-433.0127
11
-142.14104
21
-1.2426365E-5
31
-433.0127
12
-140.98926
22
-29.968208
32
-433.0127
13
-140.98915
23
-29.96811
33
-433.0126
0
3DFACE
8
0
10
-139.81903
20
29.719439
30
-433.0127
11
-140.98926
21
-29.968208
31
-433.0127
12
-137.96735
22
-61.42703
32
-433.0127
13
-137.96724
23
-61.42693
33
-433.0126
0
3DFACE
8
0
10
-139.81903
20
29.719439
30
-433.0127
11
-137.96735
21
-61.42703
31
-433.0127
12
-127.77538
22
56.889256
32
-433.0127
13
-127.77528
23
56.889355
33
-433.0126
0
LINE
8
0
10
121.82872
20
0.0
30
-433.0127
11
134.13171
21
28.510574
31
-433.0127
0
LINE
8
0
10
134.13171
20
28.510574
30
-433.0127
11
125.58802
21
55.91539
31
-433.0127
0
LINE
8
0
10
125.58802
20
55.91539
30
-433.0127
11
106.34258
21
77.26241
31
-433.0127
0
LINE
8
0
10
106.34258
20
77.26241
30
-433.0127
11
81.76077
21
90.80455
31
-433.0127
0
LINE
8
0
10
81.76077
20
90.80455
30
-433.0127
11
56.272167
21
97.46627
31
-433.0127
0
LINE
8
0
10
56.272167
20
97.46627
30
-433.0127
11
33.31338
21
102.528046
31
-433.0127
0
LINE
8
0
10
33.31338
20
102.528046
30
-433.0127
11
11.027364
21
104.91841
31
-433.0127
0
LINE
8
0
10
11.027364
20
104.91841
30
-433.0127
11
-11.011824
21
104.77046
31
-433.0127
0
LINE
8
0
10
-11.011824
20
104.77046
30
-433.0127
11
-38.285954
21
117.83203
31
-433.0127
0
LINE
8
0
10
-38.285954
20
117.83203
30
-433.0127
11
-65.43253
21
113.33246
31
-433.0127
0
LINE
8
0
10
-65.43253
20
113.33246
30
-433.0127
11
-81.37818
21
90.379616
31
-433.0127
0
LINE
8
0
10
-81.37818
20
90.379616
30
-433.0127
11
-103.146225
21
74.94011
31
-433.0127
0
LINE
8
0
10
-103.146225
20
74.94011
30
-433.0127
11
-127.77538
21
56.889256
31
-433.0127
0
LINE
8
0
10
-127.77538
20
56.889256
30
-433.0127
11
-139.81903
21
29.719439
31
-433.0127
0
LINE
8
0
10
-139.81903
20
29.719439
30
-433.0127
11
-142.14104
21
-1.2426365E-5
31
-433.0127
0
LINE
8
0
10
-142.14104
20
-1.2426365E-5
30
-433.0127
11
-140.98926
21
-29.968208
31
-433.0127
0
LINE
8
0
10
-140.98926
20
-29.968208
30
-433.0127
11
-137.96735
21
-61.42703
31
-433.0127
0
LINE
8
0
10
-137.96735
20
-61.42703
30
-433.0127
11
-129.49538
21
-94.08392
31
-433.0127
0
LINE
8
0
10
-129.49538
20
-94.08392
30
-433.0127
11
-103.977646
21
-115.4789
31
-433.0127
0
LINE
8
0
10
-103.977646
20
-115.4789
30
-433.0127
11
-68.388336
21
-118.452095
31
-433.0127
0
LINE
8
0
10
-68.388336
20
-118.452095
30
-433.0127
11
-39.311874
21
-120.98947
31
-433.0127
0
LINE
8
0
10
-39.311874
20
-120.98947
30
-433.0127
11
-13.154751
21
-125.158676
31
-433.0127
0
LINE
8
0
10
-13.154751
20
-125.158676
30
-433.0127
11
12.594275
21
-119.8272
31
-433.0127
0
LINE
8
0
10
12.594275
20
-119.8272
30
-433.0127
11
34.75267
21
-106.958015
31
-433.0127
0
LINE
8
0
10
34.75267
20
-106.958015
30
-433.0127
11
56.789257
21
-98.36211
31
-433.0127
0
LINE
8
0
10
56.789257
20
-98.36211
30
-433.0127
11
78.49896
21
-87.18216
31
-433.0127
0
LINE
8
0
10
78.49896
20
-87.18216
30
-433.0127
11
102.77123
21
-74.66791
31
-433.0127
0
LINE
8
0
10
102.77123
20
-74.66791
30
-433.0127
11
118.88232
21
-52.93006
31
-433.0127
0
LINE
8
0
10
118.88232
20
-52.93006
30
-433.0127
11
120.24084
21
-25.558228
31
-433.0127
0
LINE
8
0
10
120.24084
20
-25.558228
30
-433.0127
11
122.74416
21
-2.711836E-4
31
-433.0127
0
LINE
8
0
10
122.74416
20
-2.711836E-4
30
-433.0127
11
121.82872
21
0.0
31
-433.0127
0
ENDSEC
0
EOF
