0
SECTION
2
ENTITIES
0
3DFACE
8
0
10
76.23615
20
0.0
30
-433.0127
11
78.48589
21
16.682692
31
-433.0127
12
72.646194
22
-15.441576
32
-433.0127
13
72.64629
23
-15.441476
33
-433.0126
0
3DFACE
8
0
10
67.35779
20
29.98962
30
-433.0127
11
72.646194
21
-15.441576
31
-433.0127
12
78.48589
22
16.682692
32
-433.0127
13
78.48599
23
16.68279
33
-433.0126
0
3DFACE
8
0
10
72.646194
20
-15.441576
30
-433.0127
11
67.35779
21
29.98962
31
-433.0127
12
64.44684
22
-28.693712
32
-433.0127
13
64.44694
23
-28.693613
33
-433.0126
0
3DFACE
8
0
10
58.167755
20
42.261345
30
-433.0127
11
64.44684
21
-28.693712
31
-433.0127
12
67.35779
22
29.98962
32
-433.0127
13
67.35789
23
29.98972
33
-433.0126
0
3DFACE
8
0
10
64.44684
20
-28.693712
30
-433.0127
11
58.167755
21
42.261345
31
-433.0127
12
48.58549
22
53.95966
32
-433.0127
13
48.58559
23
53.95976
33
-433.0126
0
3DFACE
8
0
10
22.101904
20
-68.02285
30
-433.0127
11
31.421347
21
-54.423496
31
-433.0127
12
36.016575
22
62.382545
32
-433.0127
13
36.016674
23
62.382645
33
-433.0126
0
3DFACE
8
0
10
36.382454
20
-40.406914
30
-433.0127
11
36.016575
21
62.382545
31
-433.0127
12
31.421347
22
-54.423496
32
-433.0127
13
31.421446
23
-54.423397
33
-433.0126
0
3DFACE
8
0
10
36.016575
20
62.382545
30
-433.0127
11
36.382454
21
-40.406914
31
-433.0127
12
48.58549
22
53.95966
32
-433.0127
13
48.58559
23
53.95976
33
-433.0126
0
3DFACE
8
0
10
46.940605
20
-34.104454
30
-433.0127
11
48.58549
21
53.95966
31
-433.0127
12
36.382454
22
-40.406914
32
-433.0127
13
36.382553
23
-40.406815
33
-433.0126
0
3DFACE
8
0
10
48.58549
20
53.95966
30
-433.0127
11
46.940605
21
-34.104454
31
-433.0127
12
64.44684
22
-28.693712
32
-433.0127
13
64.44694
23
-28.693613
33
-433.0126
0
3DFACE
8
0
10
20.955942
20
64.49576
30
-433.0127
11
6.493365
21
61.78027
31
-433.0127
12
8.175788
22
-77.78786
32
-433.0127
13
8.175888
23
-77.78776
33
-433.0126
0
3DFACE
8
0
10
20.955942
20
64.49576
30
-433.0127
11
8.175788
21
-77.78786
31
-433.0127
12
22.101904
22
-68.02285
32
-433.0127
13
22.102003
23
-68.02275
33
-433.0126
0
3DFACE
8
0
10
20.955942
20
64.49576
30
-433.0127
11
22.101904
21
-68.02285
31
-433.0127
12
36.016575
22
62.382545
32
-433.0127
13
36.016674
23
62.382645
33
-433.0126
0
3DFACE
8
0
10
-50.5913
20
-56.187344
30
-433.0127
11
-39.449112
21
-68.32788
31
-433.0127
12
-36.20475
22
62.708454
32
-433.0127
13
-36.20465
23
62.708553
33
-433.0126
0
3DFACE
8
0
10
-25.090517
20
-77.22065
30
-433.0127
11
-36.20475
21
62.708454
31
-433.0127
12
-39.449112
22
-68.32788
32
-433.0127
13
-39.449013
23
-68.32778
33
-433.0126
0
3DFACE
8
0
10
-36.20475
20
62.708454
30
-433.0127
11
-25.090517
21
-77.22065
31
-433.0127
12
-20.177687
22
62.100525
32
-433.0127
13
-20.177588
23
62.100624
33
-433.0126
0
3DFACE
8
0
10
-8.093628
20
-77.00547
30
-433.0127
11
-20.177687
21
62.100525
31
-433.0127
12
-25.090517
22
-77.22065
32
-433.0127
13
-25.090418
23
-77.22055
33
-433.0126
0
3DFACE
8
0
10
-20.177687
20
62.100525
30
-433.0127
11
-8.093628
21
-77.00547
31
-433.0127
12
-6.3690996
22
60.597908
32
-433.0127
13
-6.3689995
23
60.598007
33
-433.0126
0
3DFACE
8
0
10
8.175788
20
-77.78786
30
-433.0127
11
-6.3690996
21
60.597908
31
-433.0127
12
-8.093628
22
-77.00547
32
-433.0127
13
-8.093528
23
-77.00537
33
-433.0126
0
3DFACE
8
0
10
-6.3690996
20
60.597908
30
-433.0127
11
8.175788
21
-77.78786
31
-433.0127
12
6.493365
22
61.78027
32
-433.0127
13
6.493465
23
61.78037
33
-433.0126
0
3DFACE
8
0
10
-50.91915
20
56.551437
30
-433.0127
11
-65.56673
21
47.637005
31
-433.0127
12
-65.17277
22
13.852893
32
-433.0127
13
-65.17267
23
13.852993
33
-433.0126
0
3DFACE
8
0
10
-50.91915
20
56.551437
30
-433.0127
11
-65.17277
21
13.852893
31
-433.0127
12
-63.353004
22
-13.4661045
32
-433.0127
13
-63.352905
23
-13.466004
33
-433.0126
0
3DFACE
8
0
10
-50.91915
20
56.551437
30
-433.0127
11
-63.353004
21
-13.4661045
31
-433.0127
12
-60.829636
22
-27.083105
32
-433.0127
13
-60.829536
23
-27.083006
33
-433.0126
0
3DFACE
8
0
10
-50.91915
20
56.551437
30
-433.0127
11
-60.829636
21
-27.083105
31
-433.0127
12
-55.92499
22
-40.631897
32
-433.0127
13
-55.924892
23
-40.631798
33
-433.0126
0
3DFACE
8
0
10
-50.91915
20
56.551437
30
-433.0127
11
-55.92499
21
-40.631897
31
-433.0127
12
-50.5913
22
-56.187344
32
-433.0127
13
-50.5912
23
-56.187244
33
-433.0126
0
3DFACE
8
0
10
-50.91915
20
56.551437
30
-433.0127
11
-50.5913
21
-56.187344
31
-433.0127
12
-36.20475
22
62.708454
32
-433.0127
13
-36.20465
23
62.708553
33
-433.0126
0
3DFACE
8
0
10
-63.353004
20
-13.4661045
30
-433.0127
11
-65.17277
21
13.852893
31
-433.0127
12
-66.733475
22
-5.8340256E-6
32
-433.0127
13
-66.733376
23
9.4165975E-5
33
-433.0126
0
3DFACE
8
0
10
76.89437
20
-1.6988583E-4
30
-433.0127
11
76.23615
21
0.0
31
-433.0127
12
72.646194
22
-15.441576
32
-433.0127
13
72.64629
23
-15.441476
33
-433.0126
0
3DFACE
8
0
10
-65.17277
20
13.852893
30
-433.0127
11
-65.56673
21
47.637005
31
-433.0127
12
-70.539055
22
31.406006
32
-433.0127
13
-70.538956
23
31.406105
33
-433.0126
0
LINE
8
0
10
76.23615
20
0.0
30
-433.0127
11
78.48589
21
16.682692
31
-433.0127
0
LINE
8
0
10
78.48589
20
16.682692
30
-433.0127
11
67.35779
21
29.98962
31
-433.0127
0
LINE
8
0
10
67.35779
20
29.98962
30
-433.0127
11
58.167755
21
42.261345
31
-433.0127
0
LINE
8
0
10
58.167755
20
42.261345
30
-433.0127
11
48.58549
21
53.95966
31
-433.0127
0
LINE
8
0
10
48.58549
20
53.95966
30
-433.0127
11
36.016575
21
62.382545
31
-433.0127
0
LINE
8
0
10
36.016575
20
62.382545
30
-433.0127
11
20.955942
21
64.49576
31
-433.0127
0
LINE
8
0
10
20.955942
20
64.49576
30
-433.0127
11
6.493365
21
61.78027
31
-433.0127
0
LINE
8
0
10
6.493365
20
61.78027
30
-433.0127
11
-6.3690996
21
60.597908
31
-433.0127
0
LINE
8
0
10
-6.3690996
20
60.597908
30
-433.0127
11
-20.177687
21
62.100525
31
-433.0127
0
LINE
8
0
10
-20.177687
20
62.100525
30
-433.0127
11
-36.20475
21
62.708454
31
-433.0127
0
LINE
8
0
10
-36.20475
20
62.708454
30
-433.0127
11
-50.91915
21
56.551437
31
-433.0127
0
LINE
8
0
10
-50.91915
20
56.551437
30
-433.0127
11
-65.56673
21
47.637005
31
-433.0127
0
LINE
8
0
10
-65.56673
20
47.637005
30
-433.0127
11
-70.539055
21
31.406006
31
-433.0127
0
LINE
8
0
10
-70.539055
20
31.406006
30
-433.0127
11
-65.17277
21
13.852893
31
-433.0127
0
LINE
8
0
10
-65.17277
20
13.852893
30
-433.0127
11
-66.733475
21
-5.8340256E-6
31
-433.0127
0
LINE
8
0
10
-66.733475
20
-5.8340256E-6
30
-433.0127
11
-63.353004
21
-13.4661045
31
-433.0127
0
LINE
8
0
10
-63.353004
20
-13.4661045
30
-433.0127
11
-60.829636
21
-27.083105
31
-433.0127
0
LINE
8
0
10
-60.829636
20
-27.083105
30
-433.0127
11
-55.92499
21
-40.631897
31
-433.0127
0
LINE
8
0
10
-55.92499
20
-40.631897
30
-433.0127
11
-50.5913
21
-56.187344
31
-433.0127
0
LINE
8
0
10
-50.5913
20
-56.187344
30
-433.0127
11
-39.449112
21
-68.32788
31
-433.0127
0
LINE
8
0
10
-39.449112
20
-68.32788
30
-433.0127
11
-25.090517
21
-77.22065
31
-433.0127
0
LINE
8
0
10
-25.090517
20
-77.22065
30
-433.0127
11
-8.093628
21
-77.00547
31
-433.0127
0
LINE
8
0
10
-8.093628
20
-77.00547
30
-433.0127
11
8.175788
21
-77.78786
31
-433.0127
0
LINE
8
0
10
8.175788
20
-77.78786
30
-433.0127
11
22.101904
21
-68.02285
31
-433.0127
0
LINE
8
0
10
22.101904
20
-68.02285
30
-433.0127
11
31.421347
21
-54.423496
31
-433.0127
0
LINE
8
0
10
31.421347
20
-54.423496
30
-433.0127
11
36.382454
21
-40.406914
31
-433.0127
0
LINE
8
0
10
36.382454
20
-40.406914
30
-433.0127
11
46.940605
21
-34.104454
31
-433.0127
0
LINE
8
0
10
46.940605
20
-34.104454
30
-433.0127
11
64.44684
21
-28.693712
31
-433.0127
0
LINE
8
0
10
64.44684
20
-28.693712
30
-433.0127
11
72.646194
21
-15.441576
31
-433.0127
0
LINE
8
0
10
72.646194
20
-15.441576
30
-433.0127
11
76.89437
21
-1.6988583E-4
31
-433.0127
0
LINE
8
0
10
76.89437
20
-1.6988583E-4
30
-433.0127
11
76.23615
21
0.0
31
-433.0127
0
ENDSEC
0
EOF
