0
SECTION
2
ENTITIES
0
LINE
8
0
10
149.35393
20
0.0
30
-433.0127
11
144.88039
21
30.795277
31
-433.0127
0
LINE
8
0
10
144.88039
20
30.795277
30
-433.0127
11
125.47428
21
55.86475
31
-433.0127
0
LINE
8
0
10
125.47428
20
55.86475
30
-433.0127
11
108.828445
21
79.06849
31
-433.0127
0
LINE
8
0
10
108.828445
20
79.06849
30
-433.0127
11
77.343956
21
85.89917
31
-433.0127
0
LINE
8
0
10
77.343956
20
85.89917
30
-433.0127
11
57.852474
21
100.20344
31
-433.0127
0
LINE
8
0
10
57.852474
20
100.20344
30
-433.0127
11
36.167713
21
111.31278
31
-433.0127
0
LINE
8
0
10
36.167713
20
111.31278
30
-433.0127
11
13.222352
21
125.80234
31
-433.0127
0
LINE
8
0
10
13.222352
20
125.80234
30
-433.0127
11
-13.195395
21
125.54575
31
-433.0127
0
LINE
8
0
10
-13.195395
20
125.54575
30
-433.0127
11
-39.717304
21
122.237274
31
-433.0127
0
LINE
8
0
10
-39.717304
20
122.237274
30
-433.0127
11
-60.56222
21
104.89683
31
-433.0127
0
LINE
8
0
10
-60.56222
20
104.89683
30
-433.0127
11
-86.655754
21
96.24096
31
-433.0127
0
LINE
8
0
10
-86.655754
20
96.24096
30
-433.0127
11
-98.26827
21
71.396065
31
-433.0127
0
LINE
8
0
10
-98.26827
20
71.396065
30
-433.0127
11
-98.69937
21
43.943783
31
-433.0127
0
LINE
8
0
10
-98.69937
20
43.943783
30
-433.0127
11
-103.6718
21
22.03611
31
-433.0127
0
LINE
8
0
10
-103.6718
20
22.03611
30
-433.0127
11
-106.82483
21
-9.338923E-6
31
-433.0127
0
LINE
8
0
10
-106.82483
20
-9.338923E-6
30
-433.0127
11
-110.5899
21
-23.50662
31
-433.0127
0
LINE
8
0
10
-110.5899
20
-23.50662
30
-433.0127
11
-104.781906
21
-46.65192
31
-433.0127
0
LINE
8
0
10
-104.781906
20
-46.65192
30
-433.0127
11
-101.20198
21
-73.52756
31
-433.0127
0
LINE
8
0
10
-101.20198
20
-73.52756
30
-433.0127
11
-98.79933
21
-109.7278
31
-433.0127
0
LINE
8
0
10
-98.79933
20
-109.7278
30
-433.0127
11
-79.2077
21
-137.1918
31
-433.0127
0
LINE
8
0
10
-79.2077
20
-137.1918
30
-433.0127
11
-48.812443
21
-150.2292
31
-433.0127
0
LINE
8
0
10
-48.812443
20
-150.2292
30
-433.0127
11
-16.539127
21
-157.35875
31
-433.0127
0
LINE
8
0
10
-16.539127
20
-157.35875
30
-433.0127
11
16.970451
21
-161.46396
31
-433.0127
0
LINE
8
0
10
16.970451
20
-161.46396
30
-433.0127
11
46.509018
21
-143.14044
31
-433.0127
0
LINE
8
0
10
46.509018
20
-143.14044
30
-433.0127
11
75.15053
21
-130.16484
31
-433.0127
0
LINE
8
0
10
75.15053
20
-130.16484
30
-433.0127
11
105.330315
21
-116.98147
31
-433.0127
0
LINE
8
0
10
105.330315
20
-116.98147
30
-433.0127
11
129.24336
21
-93.9011
31
-433.0127
0
LINE
8
0
10
129.24336
20
-93.9011
30
-433.0127
11
142.09906
21
-63.26687
31
-433.0127
0
LINE
8
0
10
142.09906
20
-63.26687
30
-433.0127
11
149.99954
21
-31.883698
31
-433.0127
0
LINE
8
0
10
149.99954
20
-31.883698
30
-433.0127
11
149.09439
21
-3.2940024E-4
31
-433.0127
0
LINE
8
0
10
149.09439
20
-3.2940024E-4
30
-433.0127
11
149.35393
21
0.0
31
-433.0127
0
ENDSEC
0
EOF
